<svg width="18" height="18" viewBox="0 0 18 18" fill="none" xmlns="http://www.w3.org/2000/svg">
<path d="M1 18C0.71667 18 0.479337 17.904 0.288003 17.712C0.0966702 17.52 0.000670115 17.2827 3.44827e-06 17C-0.000663218 16.7173 0.0953369 16.48 0.288003 16.288C0.48067 16.096 0.718003 16 1 16H15C15.2833 16 15.521 16.096 15.713 16.288C15.905 16.48 16.0007 16.7173 16 17C15.9993 17.2827 15.9033 17.5203 15.712 17.713C15.5207 17.9057 15.2833 18.0013 15 18H1ZM4 14C2.9 14 1.95834 13.6083 1.175 12.825C0.39167 12.0417 3.44827e-06 11.1 3.44827e-06 9.99999V2C3.44827e-06 1.45 0.196003 0.979333 0.588003 0.588C0.980003 0.196667 1.45067 0.000666666 2 0H16C16.55 0 17.021 0.196 17.413 0.588C17.805 0.979999 18.0007 1.45067 18 2V5C18 5.55 17.8043 6.021 17.413 6.413C17.0217 6.805 16.5507 7.00066 16 7H14V9.99999C14 11.1 13.6083 12.0417 12.825 12.825C12.0417 13.6083 11.1 14 10 14H4ZM14 5H16V2H14V5Z" fill="#FA692A"/>
</svg>
